{"title":"The.Rise.And.Rise.Of.Bitcoin(2014)720p.H264.AAC.Raven","uid":11199675,"size":825571855,"categoryP":"video","categoryS":"movies","magnet":"?xt=urn:btih:989adbbb18b3c101acf0a4a3defc36899706a9c2&amp;dn=The.Rise.And.Rise.Of.Bitcoin%282014%29720p.H264.AAC.Raven&amp;tr=udp%3A%2F%2Ftracker.openbittorrent.com%3A80&amp;tr=udp%3A%2F%2Fopen.demonii.com%3A1337&amp;tr=udp%3A%2F%2Ftracker.coppersurfer.tk%3A6969&amp;tr=udp%3A%2F%2Fexodus.desync.com%3A6969","seeders":2,"leechers":0,"uploader":"Raven1969","files":-1,"time":1413151947,"description":"The.Rise.And.Rise.Of.Bitcoin(2014)720p.H264.AAC.Raven.\n\n\n\n\nRuntime:\n96 Mins\n\n\n\nScreen images:\n\n\n &lt;a href=&quot;\nhttp://i.imgur.com/S2iml8n.png&quot; rel=&quot;nofollow&quot; target=&quot;_NEW&quot;&gt;\nhttp://i.imgur.com/S2iml8n.png&lt;/a&gt;\n\n &lt;a href=&quot;\nhttp://i.imgur.com/2WRUNSx.png&quot; rel=&quot;nofollow&quot; target=&quot;_NEW&quot;&gt;\nhttp://i.imgur.com/2WRUNSx.png&lt;/a&gt;\n\n &lt;a href=&quot;\nhttp://i.imgur.com/m7XBSy5.png&quot; rel=&quot;nofollow&quot; target=&quot;_NEW&quot;&gt;\nhttp://i.imgur.com/m7XBSy5.png&lt;/a&gt;\n\n &lt;a href=&quot;\nhttp://i.imgur.com/BEOzvrv.png&quot; rel=&quot;nofollow&quot; target=&quot;_NEW&quot;&gt;\nhttp://i.imgur.com/BEOzvrv.png&lt;/a&gt;\n\n &lt;a href=&quot;\nhttp://i.imgur.com/uvOli43.png&quot; rel=&quot;nofollow&quot; target=&quot;_NEW&quot;&gt;\nhttp://i.imgur.com/uvOli43.png&lt;/a&gt;\n\n &lt;a href=&quot;\nhttp://i.imgur.com/wLr56yK.png&quot; rel=&quot;nofollow&quot; target=&quot;_NEW&quot;&gt;\nhttp://i.imgur.com/wLr56yK.png&lt;/a&gt;\n\n &lt;a href=&quot;\nhttp://i.imgur.com/QWbge6Q.png&quot; rel=&quot;nofollow&quot; target=&quot;_NEW&quot;&gt;\nhttp://i.imgur.com/QWbge6Q.png&lt;/a&gt;\n\n\n\n\nIMDB:\n\n\n\n &lt;a href=&quot;\nhttp://www.imdb.com/title/tt2821314&quot; rel=&quot;nofollow&quot; target=&quot;_NEW&quot;&gt;\nhttp://www.imdb.com/title/tt2821314&lt;/a&gt;\n\n\n\n\nIMDB Rating:  8.2\n\n\n\n\nStoryline:\n\nA computer programmer becomes fascinated with the digital currency Bitcoin, and through his involvement in the Bitcoin community, we learn about the impending global impact of this amazing new technology.\n\nDan is a 35 year old computer programmer from Pittsburgh who lives a busy life. Along with balancing work, his marriage, and raising his three boys, Dan spends much of his time actively involved in all things Bitcoin. After discovering Bitcoin in 2011, his love and obsession for the crypto-currency was born, revealing an uncharted world of new possibilities for him to explore. Join us as we take a journey through the rapidly growing world of Bitcoin. Along the way, we'll follow the stories of entrepreneurs and startups that are helping shape the new financial frontier. We'll look at the competitive mining market and the various subcultures within the Bitcoin community. You'll encounter a variety of characters and opinions as we examine the social and political impact of an open-source digital currency. Will the rise of Bitcoin bring a monetary paradigm shift that will forever change the world?\n\n\n\n\nGeneral\n\nFormat                                   : MPEG-4\nFormat profile                           : Base Media\nCodec ID                                 : isom\nFile size                                : 780 MiB\nDuration                                 : 1h 36mn\nOverall bit rate mode                    : Variable\nOverall bit rate                         : 1 135 Kbps\nEncoded date                             : UTC 2014-10-12 19:47:44\nTagged date                              : UTC 2014-10-12 19:47:44\n\nVideo\n\nID                                       : 1\nFormat                                   : AVC\nFormat/Info                              : Advanced Video Codec\nFormat profile                           : &lt;a class=&quot;__cf_email__&quot; href=&quot;/cdn-cgi/l/email-protection&quot; data-cfemail=&quot;fdb5949a95bdb1c9d3cd&quot;&gt;[email&amp;#160;protected]&lt;/a&gt;&lt;script cf-hash='f9e31' type=&quot;text/javascript&quot;&gt;\n/* &lt;![CDATA[ */!function(){try{var t=&quot;currentScript&quot;in document?document.currentScript:function(){for(var t=document.getElementsByTagName(&quot;script&quot;),e=t.length;e--;)if(t[e].getAttribute(&quot;cf-hash&quot;))return t[e]}();if(t&amp;&amp;t.previousSibling){var e,r,n,i,c=t.previousSibling,a=c.getAttribute(&quot;data-cfemail&quot;);if(a){for(e=&quot;&quot;,r=parseInt(a.substr(0,2),16),n=2;a.length-n;n+=2)i=parseInt(a.substr(n,2),16)^r,e+=String.fromCharCode(i);e=document.createTextNode(e),c.parentNode.replaceChild(e,c)}}}catch(u){}}();/* ]]&gt; */&lt;/script&gt;\nFormat settings, CABAC                   : Yes\nFormat settings, ReFrames                : 8 frames\nCodec ID                                 : avc1\nCodec ID/Info                            : Advanced Video Coding\nDuration                                 : 1h 36mn\nBit rate                                 : 1 050 Kbps\nMaximum bit rate                         : 5 035 Kbps\nWidth                                    : 1 280 pixels\nHeight                                   : 720 pixels\nDisplay aspect ratio                     : 16:9\nFrame rate mode                          : Constant\nFrame rate                               : 29.970 fps\nColor space                              : YUV\nChroma subsampling                       : 4:2:0\nBit depth                                : 8 bits\nScan type                                : Progressive\nBits/(Pixel*Frame)                       : 0.038\nStream size                              : 722 MiB (93%)\nWriting library                          : x264 core 132 \nEncoded date                             : UTC 2014-10-12 19:47:44\nTagged date                              : UTC 2014-10-12 19:48:31\n\nAudio\n\nID                                       : 2\nFormat                                   : AAC\nFormat/Info                              : Advanced Audio Codec\nFormat profile                           : LC\nCodec ID                                 : 40\nDuration                                 : 1h 36mn\nBit rate mode                            : Variable\nBit rate                                 : 99.9 Kbps\nMaximum bit rate                         : 128 Kbps\nChannel(s)                               : 2 channels\nChannel positions                        : Front: L R\nSampling rate                            : 48.0 KHz\nCompression mode                         : Lossy\nStream size                              : 55.0 MiB (7%)\nEncoded date                             : UTC 2014-10-12 18:34:30\nTagged date                              : UTC 2014-10-12 19:48:31\n\n\n\n\nPLEASE  SEED FOR AS LONG AS POSSIBLE TO KEEP THE TORRENT ALIVE :-)","torrent":{"xt":"urn:btih:989adbbb18b3c101acf0a4a3defc36899706a9c2","amp;dn":"The.Rise.And.Rise.Of.Bitcoin%282014%29720p.H264.AAC.Raven","amp;tr":["udp%3A%2F%2Ftracker.openbittorrent.com%3A80","udp%3A%2F%2Fopen.demonii.com%3A1337","udp%3A%2F%2Ftracker.coppersurfer.tk%3A6969","udp%3A%2F%2Fexodus.desync.com%3A6969"],"infoHash":"989adbbb18b3c101acf0a4a3defc36899706a9c2","infoHashBuffer":{"type":"Buffer","data":[152,154,219,187,24,179,193,1,172,240,164,163,222,252,54,137,151,6,169,194]},"announce":[],"urlList":[]}}